<svg width="171" height="17" viewBox="0 0 171 17" fill="none" xmlns="http://www.w3.org/2000/svg">
<path fill-rule="evenodd" clip-rule="evenodd" d="M1.02237 13.8148C1.02237 14.4573 1.54282 14.9777 2.18525 14.9777H13.8147C14.4572 14.9777 14.9776 14.4573 14.9776 13.8148V2.18534C14.9776 1.54288 14.4572 1.02246 13.8147 1.02246H2.18528C1.54282 1.02246 1.0224 1.54291 1.0224 2.18534V13.8148H1.02237ZM8.29075 13.2333V8.58156H7.12781V6.83712H8.29075C8.29075 3.83965 8.41853 3.63907 12.0703 3.63907V5.38348C10.1456 5.38348 10.3259 5.49107 10.3259 6.83715H12.0703V8.5816H10.3259V13.2333H8.29075V13.2333Z" fill="#1E266D"/>
<path d="M52.2524 1.36353H43.6689C42.1779 1.36353 40.9649 2.57623 40.9649 4.06721V6.9233V12.651C40.9649 14.142 42.1779 15.3547 43.6689 15.3547H52.2526C53.7436 15.3547 54.9563 14.142 54.9563 12.651V6.92301V4.06693C54.956 2.57595 53.7433 1.36353 52.2524 1.36353ZM53.0279 2.97586L53.3372 2.97473V3.28263V5.34624L50.9736 5.35386L50.9654 2.98263L53.0279 2.97586ZM45.9636 6.92301C46.4118 6.30297 47.1388 5.89629 47.9606 5.89629C48.7824 5.89629 49.5095 6.30297 49.9571 6.92301C50.2486 7.32772 50.4233 7.82274 50.4233 8.35896C50.4233 9.71673 49.3175 10.8213 47.9603 10.8213C46.6023 10.8213 45.4977 9.71673 45.4977 8.35896C45.498 7.82274 45.6721 7.32772 45.9636 6.92301ZM53.5929 12.6507C53.5929 13.3904 52.9915 13.9913 52.2524 13.9913H43.6689C42.9295 13.9913 42.328 13.3904 42.328 12.6507V6.92301H44.4165C44.2361 7.36667 44.1348 7.85124 44.1348 8.35896C44.1348 10.468 45.8507 12.185 47.9606 12.185C50.0702 12.185 51.7861 10.468 51.7861 8.35896C51.7861 7.85124 51.6843 7.36667 51.5039 6.92301H53.5929V12.6507Z" fill="#1E266D"/>
<path d="M95.8991 3.59814C95.315 3.86028 94.6864 4.03711 94.0268 4.11624C94.7003 3.70919 95.2166 3.06442 95.4602 2.29525C94.8302 2.67267 94.1329 2.94654 93.3901 3.09438C92.7957 2.45482 91.9484 2.05493 91.0107 2.05493C89.2106 2.05493 87.7512 3.52846 87.7512 5.34618C87.7512 5.60376 87.7799 5.85483 87.8357 6.09613C85.1263 5.95871 82.7241 4.64866 81.1162 2.65737C80.8356 3.14322 80.675 3.70853 80.675 4.31227C80.675 5.45397 81.2504 6.4615 82.1251 7.05156C81.591 7.0343 81.0881 6.88613 80.6485 6.63962C80.6482 6.6533 80.6482 6.6673 80.6482 6.68131C80.6482 8.27564 81.7719 9.60556 83.2633 9.9084C82.9898 9.9833 82.7018 10.0237 82.4044 10.0237C82.1941 10.0237 81.99 10.0032 81.7909 9.96442C82.2061 11.2719 83.4098 12.2237 84.836 12.2501C83.7204 13.1329 82.3151 13.6591 80.7875 13.6591C80.5247 13.6591 80.265 13.6435 80.0099 13.6129C81.4529 14.5472 83.1663 15.0916 85.007 15.0916C91.0033 15.0916 94.2819 10.0768 94.2819 5.72751C94.2819 5.58487 94.279 5.44257 94.2729 5.30124C94.9096 4.83818 95.4624 4.25822 95.8991 3.59814Z" fill="#1E266D"/>
<g clip-path="url(#clip0)">
<path d="M125.065 9.19522C125.13 9.17378 125.195 9.15461 125.261 9.13545C125.136 8.85378 125 8.57147 124.858 8.29272C122.305 9.05748 119.855 9.00225 119.768 8.999C119.766 9.05228 119.763 9.10361 119.763 9.15689C119.763 10.431 120.244 11.5921 121.034 12.4703C121.033 12.469 121.032 12.4677 121.032 12.4677C121.032 12.4677 122.389 10.0607 125.065 9.19522Z" fill="#1E266D"/>
<path d="M124.447 7.52962C123.589 6.00467 122.672 4.7604 122.606 4.67236C121.223 5.32536 120.191 6.59951 119.87 8.13519C120 8.13648 122.066 8.16247 124.447 7.52962Z" fill="#1E266D"/>
<path d="M127.997 5.43577C127.123 4.66614 125.977 4.19897 124.722 4.19897C124.319 4.19897 123.928 4.24771 123.553 4.33802C123.628 4.43776 124.56 5.67357 125.407 7.23102C127.278 6.52896 127.985 5.45396 127.997 5.43577Z" fill="#1E266D"/>
<path d="M123.535 4.34302C123.529 4.34367 123.524 4.34432 123.518 4.34692C123.527 4.34432 123.533 4.34302 123.533 4.34302H123.535Z" fill="#1E266D"/>
<path d="M121.674 13.0658L121.675 13.0639C121.638 13.0353 121.599 13.0093 121.563 12.9788C121.629 13.0324 121.674 13.0658 121.674 13.0658Z" fill="#1E266D"/>
<path d="M125.789 7.96956C125.904 8.20639 126.015 8.4468 126.119 8.6885C126.155 8.77557 126.19 8.86036 126.225 8.94548C127.929 8.73106 129.607 9.09199 129.679 9.10661C129.668 7.9309 129.247 6.85232 128.551 6.00732C128.542 6.02064 127.747 7.17004 125.789 7.96956Z" fill="#1E266D"/>
<path d="M125.566 9.96808C122.639 10.9885 121.684 13.0443 121.675 13.0638C122.516 13.7204 123.572 14.1151 124.722 14.1151C125.408 14.1151 126.062 13.9754 126.658 13.7223C126.584 13.2889 126.296 11.7705 125.598 9.95703C125.587 9.96125 125.577 9.9645 125.566 9.96808Z" fill="#1E266D"/>
<path d="M124.722 1.15723C120.304 1.15723 116.722 4.7396 116.722 9.15723C116.722 13.5755 120.303 17.1566 124.722 17.1566C129.14 17.1566 132.722 13.5755 132.722 9.15723C132.722 4.7396 129.14 1.15723 124.722 1.15723ZM130.071 11.4174C129.926 11.7621 129.746 12.0938 129.536 12.4034C129.328 12.711 129.09 12.9998 128.827 13.2626C128.564 13.5248 128.276 13.7633 127.968 13.9715C127.658 14.1811 127.326 14.361 126.982 14.5069C126.631 14.6547 126.264 14.7684 125.891 14.8451C125.509 14.9237 125.115 14.9637 124.722 14.9637C124.328 14.9637 123.935 14.9237 123.552 14.8451C123.179 14.7684 122.812 14.6547 122.462 14.5069C122.117 14.361 121.785 14.1807 121.475 13.9715C121.168 13.7633 120.878 13.5248 120.616 13.2626C120.353 12.9998 120.115 12.7113 119.907 12.4034C119.697 12.0938 119.518 11.7617 119.372 11.4174C119.224 11.0665 119.109 10.6997 119.033 10.3261C118.955 9.94342 118.916 9.55065 118.916 9.15723C118.916 8.7638 118.955 8.37038 119.033 7.98833C119.109 7.61473 119.224 7.2473 119.372 6.89708C119.518 6.55239 119.698 6.22005 119.907 5.91012C120.115 5.60247 120.353 5.3143 120.616 5.05083C120.878 4.78866 121.167 4.55085 121.475 4.34261C121.785 4.13274 122.117 3.95243 122.462 3.80657C122.812 3.6581 123.179 3.54439 123.552 3.46837C123.935 3.3904 124.328 3.35044 124.722 3.35044C125.115 3.35044 125.509 3.3904 125.891 3.46837C126.264 3.54439 126.631 3.6581 126.982 3.80657C127.326 3.95243 127.658 4.13274 127.968 4.34261C128.275 4.55085 128.564 4.78866 128.827 5.05083C129.09 5.3143 129.328 5.60214 129.536 5.91012C129.746 6.21972 129.926 6.55239 130.071 6.89708C130.22 7.2473 130.334 7.61473 130.41 7.98833C130.488 8.37038 130.528 8.7638 130.528 9.15723C130.528 9.55065 130.488 9.94342 130.41 10.3261C130.334 10.6997 130.22 11.0665 130.071 11.4174Z" fill="#1E266D"/>
<path d="M126.528 9.72764C127.178 11.5151 127.442 12.9705 127.493 13.2694C128.606 12.5183 129.397 11.3254 129.617 9.94336C129.515 9.91054 128.128 9.47132 126.528 9.72764Z" fill="#1E266D"/>
</g>
<g clip-path="url(#clip1)">
<path fill-rule="evenodd" clip-rule="evenodd" d="M167.869 1.0877C168.586 1.4392 171.501 7.7307 169.014 13.2102C167.017 17.6102 162.002 17.6107 159.461 16.0602C157.29 14.7352 153.973 10.5607 157.645 5.4632C157.8 5.2697 158.173 5.2872 158.089 5.8717C158.029 6.2867 157.497 9.2662 158.513 10.5607C158.977 11.2082 159.086 10.7617 159.086 10.7617C159.086 10.7617 159.007 6.4262 162.303 3.1347C164.395 1.1277 167.297 0.806697 167.869 1.0877Z" fill="#1E266D"/>
</g>
<defs>
<clipPath id="clip0">
<rect width="16" height="16" fill="white" transform="translate(117 1)"/>
</clipPath>
<clipPath id="clip1">
<rect width="16" height="16" fill="white" transform="translate(155 1)"/>
</clipPath>
</defs>
</svg>
